<?xml version="1.0" encoding="utf-8"?>
<!-- Generator: Adobe Illustrator 22.1.0, SVG Export Plug-In . SVG Version: 6.00 Build 0)  -->
<svg version="1.1" id="Layer_1" xmlns="http://www.w3.org/2000/svg" xmlns:xlink="http://www.w3.org/1999/xlink" x="0px" y="0px"
	 viewBox="0 0 100 100" style="enable-background:new 0 0 100 100;" xml:space="preserve">
<style type="text/css">
	.st0{fill:#B0BEC5;}
	.st1{fill:#FFFFFF;}
</style>
<path class="st0" d="M50,0c27.6,0,50,22.4,50,50s-22.4,50-50,50S0,77.6,0,50S22.4,0,50,0z"/>
<g id="B3UIkX_1_">
	<g>
		<path class="st1" d="M55,44.2c3.2,2.7,6.4,5.5,9.7,8.1c1.4,1.2,3,2.1,4.4,3.3c1.9,1.6,3,3.6,2.2,6.1c-0.8,2.7-2.7,4.4-5.5,4.9
			c-2.5,0.4-4.4-1-5.8-2.9c-2.6-3.4-5-6.8-7.6-10.2c-1-1.2-2.2-2.3-3.3-3.4c-1.2-0.9-2.3-1.7-3.5-2.6c2.3-2.3,4.6-4.6,6.9-6.9
			C53.4,41.9,54.2,43,55,44.2z"/>
		<path class="st1" d="M55,44.2c-0.8-1.1-1.6-2.3-2.5-3.4c-0.5-1-0.9-1.9-1.4-2.9c1.7-1.2,1.7-2.7,1.3-4.6
			c-1.2-5.1,1.3-9.2,6.4-10.3c1.9-0.4,3.9-0.1,6-0.1c-1.7,1.7-3.2,3.4-4.8,5c-0.6,0.6-0.7,1.1-0.5,2c0.8,2.4,2.4,4,4.8,4.7
			c0.7,0.2,1.2,0.1,1.7-0.4c1.6-1.6,3.2-3.2,4.9-5c0.7,1.9,0.7,3.7,0.4,5.6c-1.1,5.2-5.3,8.1-10.3,6.8c-2.3-0.6-3.9-0.2-5.2,1.7
			C55.7,43.6,55.3,43.9,55,44.2z"/>
		<path class="st1" d="M45.7,47.6c1.2,0.9,2.3,1.7,3.5,2.6c-4.7,5-9.4,10.1-14.2,15.1c-1.8,1.9-4.9,1.8-6.6,0
			c-1.7-1.9-1.3-4.8,0.6-6.6c4.3-4,8.5-8.1,12.7-12.1c0.3-0.2,0.5-0.5,0.8-0.7C43.6,46.5,44.7,47,45.7,47.6z M34.2,61.8
			c0-0.9-0.8-1.8-1.8-1.9c-1-0.1-1.8,0.7-1.9,1.7c-0.1,1.1,0.7,1.9,1.8,2C33.3,63.6,34.2,62.8,34.2,61.8z"/>
		<path class="st1" d="M43.9,42.1c-2.8-2.7-5.5-5.4-8.3-8c-1.3-1.2-2.8-2.3-4.3-3.4c-1-0.7-1.7-1.4-2.1-2.6
			c-0.3-0.9-0.7-1.9-1.2-2.7c-0.6-1-0.5-1.7,0.4-2.4c0.5-0.4,0.9-0.6,1.6-0.3c1.3,0.6,2.6,1.1,3.9,1.8c0.5,0.2,1,0.6,1.3,1
			c3.2,5.2,7.9,8.9,12.1,13.1C46.2,39.8,45,41,43.9,42.1z"/>
		<path class="st1" d="M43.9,42.1c1.1-1.1,2.3-2.3,3.4-3.4c0.3-0.2,0.5-0.5,0.8-0.7c1.2-1.1,1.7-1.1,3.1-0.1c0.5,1,0.9,1.9,1.4,2.9
			c-2.3,2.3-4.6,4.6-6.9,6.9c-1-0.6-2.1-1.1-3.1-1.7c-0.8-1.1-0.4-2,0.4-2.9C43.3,42.8,43.6,42.4,43.9,42.1z"/>
	</g>
</g>
<g>
	<path class="st1" d="M32.7,73.8h2.3l2.3,10.4h0l2.8-10.4h1.6l2.8,10.4h0l2.3-10.4h2.3l-3.7,14.7h-1.9l-2.8-10.6h0l-2.8,10.6h-1.9
		L32.7,73.8z"/>
	<path class="st1" d="M51.2,73.8h2.2v14.7h-2.2V73.8z"/>
	<path class="st1" d="M56.5,73.8h5.3c0.6,0,1.1,0.1,1.7,0.2c0.5,0.1,1.1,0.4,1.6,0.9c0.5,0.3,0.8,0.8,1.1,1.4
		c0.3,0.6,0.5,1.3,0.5,2.1c0,1.1-0.4,2.1-1.1,3c-0.8,0.9-1.9,1.4-3.4,1.5h-3.4v5.7h-2.2V73.8z M58.8,80.6h3.3c0.8,0,1.4-0.3,1.9-0.8
		c0.4-0.5,0.6-1,0.6-1.6c0-0.5-0.1-0.9-0.2-1.2c-0.2-0.3-0.4-0.5-0.7-0.7c-0.5-0.3-1-0.4-1.6-0.4h-3.2V80.6z"/>
</g>
</svg>
